<svg xmlns="http://www.w3.org/2000/svg" width="24" height="24" viewBox="0 0 24 24"><g fill="#555872"><circle cx="12" cy="12" r="1.5" opacity=".75"/><circle cx="15.25" cy="8.75" r="1.25" opacity=".7"/><circle cx="8.75" cy="8.75" r="1.25" opacity=".7"/><circle cx="6" cy="12" r="1" opacity=".7"/><circle cx="2.75" cy="9.25" r="1" opacity=".45"/><circle cx="2.75" cy="15.25" r="1" opacity=".45"/><circle cx="20.75" cy="9.25" r="1" opacity=".45"/><circle cx="20.75" cy="15.25" r="1" opacity=".45"/><circle cx="18" cy="12" r="1" opacity=".7"/><circle cx="12" cy="6" r="1" opacity=".65"/><circle cx="18" cy="6" r="1" opacity=".55"/><circle cx="6" cy="6" r="1" opacity=".55"/><circle cx="14.75" cy="2.75" r="1" opacity=".45"/><circle cx="9.25" cy="2.75" r="1" opacity=".45"/><circle cx="14.75" cy="20.75" r="1" opacity=".45"/><circle cx="9.25" cy="20.75" r="1" opacity=".45"/><circle cx="18" cy="18" r="1" opacity=".55"/><circle cx="6" cy="18" r="1" opacity=".55"/><circle cx="15.25" cy="15.25" r="1.25" opacity=".7"/><circle cx="8.75" cy="15.25" r="1.25" opacity=".7"/><circle cx="12" cy="18" r="1" opacity=".65"/></g></svg>