<svg xmlns="http://www.w3.org/2000/svg" width="24" height="24" viewBox="0 0 24 24"><defs><linearGradient id="a" x1="50%" x2="50%" y1="0%" y2="98.433%"><stop offset="0%" stop-color="#555872" stop-opacity=".6"/><stop offset="100%" stop-color="#555872" stop-opacity=".9"/></linearGradient><linearGradient id="b" x1="50%" x2="50%" y1="0%" y2="96.931%"><stop offset="0%" stop-color="#946A40"/><stop offset="100%" stop-color="#A08871"/></linearGradient></defs><g fill="none"><path fill="url(#a)" d="M9 5h-2.5c-.828 0-1.5-.672-1.5-1.5s.672-1.5 1.5-1.5h13c.828 0 1.5.672 1.5 1.5s-.672 1.5-1.5 1.5h-5.5c-.552 0-1 .448-1 1s.448 1 1 1h2.5c.828 0 1.5.672 1.5 1.5s-.672 1.5-1.5 1.5h-2c-.552 0-1 .448-1 1s.448 1 1 1c.828 0 1.5.672 1.5 1.5s-.672 1.5-1.5 1.5h-4c-.828 0-1.5-.672-1.5-1.5s.672-1.5 1.5-1.5c.552 0 1-.448 1-1s-.448-1-1-1h-2c-.828 0-1.5-.672-1.5-1.5s.672-1.5 1.5-1.5h.5c.552 0 1-.448 1-1s-.448-1-1-1z"/><rect width="9" height="2" x="8" y="14" fill="#FBB104" rx="1"/><path fill="url(#b)" d="M8.58 15h7.839c.359 0 .69.192.868.504l3.285 5.748c.137.24.054.545-.186.682-.076.043-.161.066-.248.066h-15.277c-.276 0-.5-.224-.5-.5 0-.087.023-.173.066-.248l3.285-5.748c.178-.312.509-.504.868-.504z"/><path fill="#F66049" d="M14 17c0-.552-.448-1-1-1s-1 .448-1 1h-4c-.552 0-1-.448-1-1s.448-1 1-1h9c.552 0 1 .448 1 1s-.448 1-1 1h-3z"/><rect width="2" height="3" x="14" y="15" fill="#F66049" rx="1"/><rect width="2" height="4" x="10" y="15" fill="#F66049" rx="1"/><circle cx="3" cy="15" r="1" fill="#555872" opacity=".599"/><circle cx="2" cy="9" r="1" fill="#555872" opacity=".599"/><circle cx="5" cy="12" r="1" fill="#555872" opacity=".7"/><circle cx="21" cy="15" r="1" fill="#555872" opacity=".599"/><circle cx="22" cy="9" r="1" fill="#555872" opacity=".599"/><circle cx="19" cy="12" r="1" fill="#555872" opacity=".7"/><rect width="2" height="2" x="10" y="14" fill="#FBB104" rx="1"/></g></svg>